# Blender v2.80 (sub 75) OBJ File: ''
# www.blender.org
mtllib veveve.mtl
o Circle
v 0.000000 0.000000 -1.000000
v -0.866025 0.000000 -0.500000
v -0.866025 0.000000 0.500000
v 0.000000 0.000000 1.000000
v 0.866025 0.000000 0.500000
v 0.866025 0.000000 -0.500000
v 0.000000 0.476416 -1.000000
v -0.866025 0.476416 -0.500000
v -0.866025 0.476416 0.500000
v 0.000000 0.476416 1.000000
v 0.866025 0.476416 0.500000
v 0.866025 0.476416 -0.500000
vt 0.000000 0.000000
vt 0.000000 0.000000
vt 0.000000 0.000000
vt 0.000000 0.000000
vt 0.000000 0.000000
vt 0.000000 0.000000
vt 0.000000 0.000000
vt 0.000000 0.000000
vt 0.000000 0.000000
vt 0.000000 0.000000
vt 0.000000 0.000000
vt 0.000000 0.000000
vn 0.0000 -1.0000 0.0000
vn 0.0000 1.0000 0.0000
vn -1.0000 0.0000 0.0000
vn 1.0000 0.0000 0.0000
vn -0.5000 0.0000 0.8660
vn -0.5000 0.0000 -0.8660
vn 0.5000 0.0000 -0.8660
vn 0.5000 0.0000 0.8660
usemtl None
s off
f 2/1/1 1/2/1 6/3/1 5/4/1 4/5/1 3/6/1
f 8/7/2 9/8/2 10/9/2 11/10/2 12/11/2 7/12/2
f 2/1/3 3/6/3 9/8/3 8/7/3
f 5/4/4 6/3/4 12/11/4 11/10/4
f 3/6/5 4/5/5 10/9/5 9/8/5
f 1/2/6 2/1/6 8/7/6 7/12/6
f 6/3/7 1/2/7 7/12/7 12/11/7
f 4/5/8 5/4/8 11/10/8 10/9/8
